<svg width="1080" height="1080" viewBox="0 0 1080 1080" fill="none" xmlns="http://www.w3.org/2000/svg">
<rect width="1080" height="1080" fill="#0095DA"/>
<path d="M334.948 400.8H375.948L383.348 446.4V515H342.548V440.2L334.948 400.8ZM422.748 397.4C433.282 397.4 442.215 399.6 449.548 404C456.882 408.4 462.482 414.6 466.348 422.6C470.215 430.6 472.148 440.067 472.148 451V515H431.348V457C431.348 448.467 429.415 441.933 425.548 437.4C421.682 432.867 416.082 430.6 408.748 430.6C403.548 430.6 399.015 431.8 395.148 434.2C391.415 436.6 388.482 440 386.348 444.4C384.348 448.8 383.348 454 383.348 460L370.748 453.4C372.348 441.267 375.615 431.067 380.548 422.8C385.482 414.4 391.548 408.067 398.748 403.8C406.082 399.533 414.082 397.4 422.748 397.4ZM511.348 397.4C521.882 397.4 530.815 399.6 538.148 404C545.615 408.4 551.282 414.6 555.148 422.6C559.015 430.6 560.948 440.067 560.948 451V515H520.148V457C520.148 448.467 518.215 441.933 514.348 437.4C510.482 432.867 504.882 430.6 497.548 430.6C492.348 430.6 487.815 431.8 483.948 434.2C480.215 436.6 477.282 440 475.148 444.4C473.148 448.8 472.148 454 472.148 460L459.548 453.4C461.148 441.267 464.348 431.067 469.148 422.8C474.082 414.4 480.215 408.067 487.548 403.8C494.882 399.533 502.815 397.4 511.348 397.4ZM685.15 515L679.95 473.8L685.35 458L679.95 442.2L685.15 400.8H727.55L720.35 457.8L727.55 515H685.15ZM694.75 458C692.883 470 689.15 480.533 683.55 489.6C678.083 498.667 671.083 505.733 662.55 510.8C654.15 515.733 644.55 518.2 633.75 518.2C622.55 518.2 612.683 515.733 604.15 510.8C595.75 505.733 589.15 498.667 584.35 489.6C579.55 480.4 577.15 469.867 577.15 458C577.15 445.867 579.55 435.267 584.35 426.2C589.15 417.133 595.75 410.067 604.15 405C612.683 399.933 622.55 397.4 633.75 397.4C644.55 397.4 654.15 399.933 662.55 405C671.083 409.933 678.15 416.933 683.75 426C689.35 434.933 693.017 445.6 694.75 458ZM618.55 458C618.55 463.6 619.683 468.6 621.95 473C624.35 477.4 627.617 480.867 631.75 483.4C635.883 485.8 640.617 487 645.95 487C651.55 487 656.817 485.8 661.75 483.4C666.683 480.867 671.017 477.4 674.75 473C678.483 468.6 681.283 463.6 683.15 458C681.283 452.267 678.483 447.2 674.75 442.8C671.017 438.4 666.683 434.933 661.75 432.4C656.817 429.867 651.55 428.6 645.95 428.6C640.617 428.6 635.883 429.867 631.75 432.4C627.617 434.933 624.35 438.4 621.95 442.8C619.683 447.2 618.55 452.267 618.55 458ZM747.184 399L767.784 403L788.184 399V515H747.184V399ZM767.584 389.6C760.518 389.6 754.784 387.867 750.384 384.4C745.984 380.8 743.784 375.933 743.784 369.8C743.784 363.8 745.984 359 750.384 355.4C754.784 351.8 760.518 350 767.584 350C774.918 350 780.718 351.8 784.984 355.4C789.384 359 791.584 363.8 791.584 369.8C791.584 375.933 789.384 380.8 784.984 384.4C780.718 387.867 774.918 389.6 767.584 389.6ZM136.638 561H177.638V715H136.638V561ZM200.114 599L220.714 603L241.114 599V715H200.114V599ZM220.514 589.6C213.447 589.6 207.714 587.867 203.314 584.4C198.914 580.8 196.714 575.933 196.714 569.8C196.714 563.8 198.914 559 203.314 555.4C207.714 551.8 213.447 550 220.514 550C227.847 550 233.647 551.8 237.914 555.4C242.314 559 244.514 563.8 244.514 569.8C244.514 575.933 242.314 580.8 237.914 584.4C233.647 587.867 227.847 589.6 220.514 589.6ZM263.591 561H304.591V634L299.191 644.4V673.2L304.591 683.2V715H263.591V561ZM291.391 658C293.257 645.6 296.924 634.933 302.391 626C307.857 616.933 314.857 609.933 323.391 605C332.057 599.933 341.724 597.4 352.391 597.4C363.591 597.4 373.391 599.933 381.791 605C390.324 610.067 396.924 617.133 401.591 626.2C406.391 635.267 408.791 645.867 408.791 658C408.791 669.867 406.391 680.4 401.591 689.6C396.924 698.667 390.324 705.733 381.791 710.8C373.391 715.733 363.591 718.2 352.391 718.2C341.591 718.2 331.924 715.733 323.391 710.8C314.857 705.733 307.857 698.667 302.391 689.6C296.924 680.533 293.257 670 291.391 658ZM367.591 658C367.591 652.267 366.391 647.2 363.991 642.8C361.724 638.4 358.524 634.933 354.391 632.4C350.257 629.867 345.457 628.6 339.991 628.6C334.524 628.6 329.324 629.867 324.391 632.4C319.457 634.933 315.124 638.4 311.391 642.8C307.657 647.2 304.791 652.267 302.791 658C304.791 663.6 307.657 668.6 311.391 673C315.124 677.4 319.457 680.867 324.391 683.4C329.324 685.8 334.524 687 339.991 687C345.457 687 350.257 685.8 354.391 683.4C358.524 680.867 361.724 677.4 363.991 673C366.391 668.6 367.591 663.6 367.591 658ZM420.495 600.8H462.095L468.895 641.6V715H428.095V639.2L420.495 600.8ZM522.495 599V633.8C518.495 633 514.695 632.467 511.095 632.2C507.629 631.8 504.429 631.6 501.495 631.6C495.629 631.6 490.229 632.8 485.295 635.2C480.362 637.467 476.362 641.267 473.295 646.6C470.362 651.933 468.895 659.067 468.895 668L461.095 658.4C462.162 650.133 463.762 642.4 465.895 635.2C468.029 627.867 470.895 621.4 474.495 615.8C478.229 610.067 482.829 605.6 488.295 602.4C493.762 599.067 500.429 597.4 508.295 597.4C510.562 597.4 512.895 597.533 515.295 597.8C517.695 598.067 520.095 598.467 522.495 599ZM636.713 715L631.513 673.8L636.913 658L631.513 642.2L636.713 600.8H679.113L671.913 657.8L679.113 715H636.713ZM646.313 658C644.446 670 640.713 680.533 635.113 689.6C629.646 698.667 622.646 705.733 614.113 710.8C605.713 715.733 596.113 718.2 585.313 718.2C574.113 718.2 564.246 715.733 555.713 710.8C547.313 705.733 540.713 698.667 535.913 689.6C531.113 680.4 528.713 669.867 528.713 658C528.713 645.867 531.113 635.267 535.913 626.2C540.713 617.133 547.313 610.067 555.713 605C564.246 599.933 574.113 597.4 585.313 597.4C596.113 597.4 605.713 599.933 614.113 605C622.646 609.933 629.713 616.933 635.312 626C640.913 634.933 644.579 645.6 646.313 658ZM570.113 658C570.113 663.6 571.246 668.6 573.513 673C575.913 677.4 579.179 680.867 583.313 683.4C587.446 685.8 592.179 687 597.513 687C603.113 687 608.379 685.8 613.313 683.4C618.246 680.867 622.579 677.4 626.313 673C630.046 668.6 632.846 663.6 634.713 658C632.846 652.267 630.046 647.2 626.313 642.8C622.579 638.4 618.246 634.933 613.313 632.4C608.379 629.867 603.113 628.6 597.513 628.6C592.179 628.6 587.446 629.867 583.313 632.4C579.179 634.933 575.913 638.4 573.513 642.8C571.246 647.2 570.113 652.267 570.113 658ZM693.347 600.8H734.947L741.747 641.6V715H700.947V639.2L693.347 600.8ZM795.347 599V633.8C791.347 633 787.547 632.467 783.947 632.2C780.48 631.8 777.28 631.6 774.347 631.6C768.48 631.6 763.08 632.8 758.147 635.2C753.214 637.467 749.214 641.267 746.147 646.6C743.214 651.933 741.747 659.067 741.747 668L733.947 658.4C735.014 650.133 736.614 642.4 738.747 635.2C740.88 627.867 743.747 621.4 747.347 615.8C751.08 610.067 755.68 605.6 761.147 602.4C766.614 599.067 773.28 597.4 781.147 597.4C783.414 597.4 785.747 597.533 788.147 597.8C790.547 598.067 792.947 598.467 795.347 599ZM846.894 751.2C838.494 751.2 831.027 750.133 824.494 748C817.96 746 811.627 742.867 805.494 738.6V710.2C811.76 714.2 817.627 717.067 823.094 718.8C828.56 720.533 834.56 721.4 841.094 721.4C846.56 721.4 851.427 720.2 855.694 717.8C859.96 715.4 863.427 711 866.094 704.6L909.894 600.8H953.294L898.494 717.2C894.627 725.6 889.894 732.267 884.294 737.2C878.827 742.267 872.894 745.867 866.494 748C860.094 750.133 853.56 751.2 846.894 751.2ZM848.294 704.4L799.694 600.8H844.694L887.694 704.4H848.294Z" fill="white"/>
</svg>
